/* XPM */
static char *result[] = {
/* columns rows colors chars-per-pixel */
"64 64 59 1 ",
"  c #3C1E0F",
". c #3D1E10",
"X c #3F2011",
"o c #3F342B",
"O c #402111",
"+ c #472A1B",
"@ c #492D1D",
"# c #4A2F20",
"$ c #4C3122",
"% c #41362D",
"& c #43392E",
"* c #463B32",
"= c #493E34",
"- c #494236",
"; c #4C4339",
": c #356A42",
"> c #3A7648",
", c #3C7C4C",
"< c #377C50",
"1 c #3A7F50",
"2 c #4F4941",
"3 c #534D44",
"4 c #574F48",
"5 c #565046",
"6 c #575149",
"7 c #5A544C",
"8 c #5D584E",
"9 c #5D5750",
"0 c #5F5B52",
"q c #625D54",
"w c #655F58",
"e c #636057",
"r c #65625B",
"t c #68665E",
"y c #6A6760",
"u c #6C6A63",
"i c #747267",
"p c #767468",
"a c #78766B",
"s c #79786B",
"d c #7E7D72",
"f c #817E75",
"g c #3F824F",
"h c #3E8250",
"j c #43854E",
"k c #47884D",
"l c #498A4D",
"z c #518F4B",
"x c #5F9B47",
"c c #52904B",
"v c #5D9A48",
"b c #408550",
"n c #619D47",
"m c #66A145",
"M c #838076",
"N c #86847B",
"B c #89867E",
"V c #8D8982",
"C c #908C85",
/* pixels */
"ggggggggggggghggk111k11k11111j1j1j1j1j1j,bbbbbbbbb,bbhg1j1gj1j1j",
"gggggggggggggjgg11k1k11l1l1lj1j1j1j1j1j1bbb,,,,b,b,bh,gj1jggj1j1",
"gggggggggggggggg1k1k1111111l1j1j1j1j1j1jb,b,::,b,bbb1j1jj,hggg,h",
"gggggggggggggggg1k111kk1kk1,j1j1j1j1j1j1bb,>::>,bbb,j1j11jhbggbh",
"gggggggggggggggg1k11l1,,11,1k11j1j111j1jb,::,,::,bhj,h1j1j1jgj1j",
"jggggggggggggggg1k1k11,,1l,,k1,,j1j1j1j1,>::,,::,bbbbhjgj1j1j1j1",
"hgggggggggggggggk1,,1$+@$$$$$$$$$$$###$$@++>::,,,b,,,ggg,hgjgb1j",
"gggggggggggggggg1,k,$fpffpppfiiiffiiiiipiii+::,bbhbbbbggbhggghh,",
"ggggggggggggggggggg@vffuiiiiiiiiiiiiiiiiiiid@,,,ggh,ggbhgghhbggg",
"ggggggggggggjhggggg+ffiiiiiiiiiipiiiiiiiiiid@bbbgbhjggghgg,jgg1j",
"ggggggggggggggggggj+fpfpppppppipiiiiiippiiid@,bjggj1j1j,j1j1j1j1",
"ggggggggggggggggggj+fuuppipipppppiiiiifsiiif$b1,1j1j1j1j1j1j,j1j",
"gggggggggggbghbgggg+Miiippppppppppippfsfiipf$11bjh,hj1j11jgghggg",
"ggggggggjggh,hggggg+Niiippiippppipiapfffiiaf$bbj1jgbgg1jjggghbjg",
",hgggggghgh,1hggggj@Nipippippppppiaippppppif$jb,gggggg,j1jhb1j1j",
"hj1jgggggghjkkj,ggj@BsppppppppipaiiapppppppV$,1bggggbhh1j1h,j1j1",
"bh1j1j,hb,1kxvkhggb@BaaappppasapppsppaaappaB#1,bjggggggj1j,hb1j1",
"1jj1j1bhhh1lmmk1ggb#BaaappppaaaapsppapfapppB#1b,hgggggggj1j1hj1j",
"j,hj1jggh,hlmmk111g#BapaMMpaaaapfipfaapffffV$1bbgggggggg1j1jhbj1",
"1jbhj1jgjh1lmmlbkkj$NppaMMsapsaasppppfpffBCq#,,bggggggggj1j1gh,j",
"gggg1ggg,h1lmnkbnnlO8NaaassaaaaapfpsffffV9qqO,bbggggggggggh,gj1j",
"ggggjhggbb1lmmkknmlO88BBVVBNNNfNMMBMBNBCCqw;Xbb,ggggggggggbhj1j1",
"gggggggg1,1lmmkknnlO7patewqwwwqq778877774f55Ob,bgggggggggggjggh,",
"ggggggggjb1kvnkkmmlOa77weqwwwq77778587777f;5Obbbggggggggggggggbh",
"gggggggggg,bkkhkmnzOa97777qww7977777878797a3.1b,gggggggggggggggg",
"gggggggggggb111knnlOa6479777497777777787779iXbb,gggggggggggggggg",
"hbgggggghhggg,,jlljOu777777749===878787897quXbbbgggggggggjhggggg",
"g,ggggggb,jggbhg1,,Oy766777777*0q;;7777879quX,,bgggggggggggggggg",
"111gggggggj1j1ggb,bXu777777777*77wqq787777qy.gggggjhgggggghjgggg",
"lkjhgggggggg1jggbb,Xy474744777**=747777977qt.gggggggggggggggggh,",
"mvk<,jhgggggjhbgbb,Xy677477777*0q==77777670tXbggggggggggggggjhh1",
"mnzkbhgggggg,hgg,bbXt446474774077wq774770q0t.ggggggggggggggg1jkk",
"jcmxkhgggggggggghhhXr7676666766647477474000rXhgggggggggggggghkvm",
"jlxxkggggggggggghhhXr3366666666-=4744444000yXhhhgggggggggggg1kxm",
"mxcjgggggggggggghhhXr333666666o0q4=44444909yXhhhggggggggggggggkl",
"mxj<gggggggggggghhhXr336266666o0%%%43433609r hhhgggggggggggggghh",
"lkgggggggggggggghgg.r233326663o099o64636400r.ggggggggggggggggggg",
"ggggggggggggggggggg.r333266663&oo2933363370r.ggggggggggggggggggg",
"gggggggggjggggggggg r2333263627893232633360r.ggggggggggggggggggg",
"ggggggggggggggggggg 033335o*322332226226333e.ggggggggggggggggggg",
"ggggggggggggggggggg 03332&eq6622ooo23233363r.hgggggggggggggggggg",
"ggggggggggggggggggg 0332-866766o97923233333r ggggggggggggggggggg",
"ggggggggggggggggghh 0223-06666o22oo33333333r.ggggggggggggggggggg",
"ggggggggggggggggggg e32-*e55328o37923233333r.ggggggggggggggggggg",
"ggggggggggggggggg,:: oo*05683538ooo23255333r hgggggggggggggggggg",
"ggggggggggggggggg<:: oe085663;35777323;3333r.hgggggggggggggggggg",
"ggggggggggggggggggg>Xo028865;53;23332322:64r.hhggg11gggggggggggg",
"gggggggggggggggggggh r33;66;33oo3oo23233433r hhggjkkjggggggggggg",
"ggggggggggggggggggg e2;55;55558o5o8;3;;5355e g1h1kxxkhgggggggggg",
"ggggggggggggggggggg 85333333;53838353335653e jkk,kmml<gggggggggg",
"ggggggggggggggggggg q5;5553355;&5o535353335e kxxjkmmlhgggggggggg",
"ggggggggggggggggggg 055555;5;5-o5oo55355355e lmmkjmmkh,ggggggggg",
"ggggggggggggggggggg 07333366558858855355335e lmmkkmmlhgggggggggg",
"ggggggggggjgggggggg e83335;55555555555o&533e lmmkjvvkhgggggggggg",
"ggggggggggggggggggg e8855535;55555555*--535e lmmlhkkgggggggggggg",
"ggggggggggggggggggg q778886885555555o---*-3e kvvkh11hggggggggggg",
"gggggggggggggggghgg q87788887563555o------;w gkkjggggghjggggghgj",
"ggggggggggggggggjggg..      . .         ....ggh<,ggggggggggggggg",
"gggggggggggggggggggggggg<kxnj<ggggggggggggghgggghhgggggggggggggg",
"ggggggggggggggggggggggggkcnxckghgggggggggggjgggggggggggggggggggg",
"ggghggjgggggggggbggggg1kvnllnnlhgggggggggggggggggggggggggggggggg",
"gggggggggggggggghhgggh1knnllnxlhgggggggggggggggggggggggggggggggg",
"ggggggggggggggggj,gggggjkcnncjgggggggggggggggggggggggggggggghggg",
"gggggggggggggggggggggggg<kmmjhgggggggggggggggggggggggggggggggggg"
};
